<svg width="275" height="29" viewBox="0 0 275 29" fill="none" xmlns="http://www.w3.org/2000/svg">
<path d="M6.66797 28C2.56641 28 0.515625 25.9492 0.515625 21.8477V7.60938C0.515625 3.50781 2.56641 1.45703 6.66797 1.45703H12.1172C16.2188 1.45703 18.2695 3.50781 18.2695 7.60938V9.54297L14.9297 11.125H14.7539V7.60938C14.7539 5.61719 13.875 4.62109 12.1172 4.62109H6.66797C4.91016 4.62109 4.03125 5.61719 4.03125 7.60938V21.8477C4.03125 23.8398 4.91016 24.8359 6.66797 24.8359H12.1172C13.875 24.8359 14.7539 23.8398 14.7539 21.8477V16.3281H8.63672V16.1523L10.0605 13.1289H18.2695V21.8477C18.2695 25.9492 16.2188 28 12.1172 28H6.66797ZM25.3008 28.7031V7.60938C25.3008 3.50781 27.3516 1.45703 31.4531 1.45703H36.9023C41.0039 1.45703 43.0547 3.50781 43.0547 7.60938V27.1211L39.7148 28.7031H39.5391V16.3281H28.8164V27.1211L25.4766 28.7031H25.3008ZM28.8164 13.1289H39.5391V7.60938C39.5391 5.61719 38.6602 4.62109 36.9023 4.62109H31.4531C29.6953 4.62109 28.8164 5.61719 28.8164 7.60938V13.1289ZM50.0859 28.7031V7.60938C50.0859 3.50781 52.1367 1.45703 56.2383 1.45703H61.6875C63.7969 1.45703 65.2617 2.01953 66.082 3.14453C67.0195 2.01953 68.4844 1.45703 70.4766 1.45703H75.9258C80.0273 1.45703 82.0781 3.50781 82.0781 7.60938V27.1211L78.7383 28.7031H78.5625V7.60938C78.5625 5.61719 77.6836 4.62109 75.9258 4.62109H70.4766C68.7188 4.62109 67.8398 5.61719 67.8398 7.60938V27.1211L64.5 28.7031H64.3242V7.60938C64.3242 5.61719 63.4453 4.62109 61.6875 4.62109H56.2383C54.4805 4.62109 53.6016 5.61719 53.6016 7.60938V27.1211L50.2617 28.7031H50.0859ZM89.1094 28.7031V2.33594L92.4492 0.753906H92.625V27.1211L89.2852 28.7031H89.1094ZM99.6562 28.7031V7.60938C99.6562 3.50781 101.707 1.45703 105.809 1.45703H111.258C115.359 1.45703 117.41 3.50781 117.41 7.60938V27.1211L114.07 28.7031H113.895V7.60938C113.895 5.61719 113.016 4.62109 111.258 4.62109H105.809C104.051 4.62109 103.172 5.61719 103.172 7.60938V27.1211L99.832 28.7031H99.6562ZM130.594 28C126.492 28 124.441 25.9492 124.441 21.8477V7.60938C124.441 3.50781 126.492 1.45703 130.594 1.45703H136.043C140.145 1.45703 142.195 3.50781 142.195 7.60938V9.54297L138.855 11.125H138.68V7.60938C138.68 5.61719 137.801 4.62109 136.043 4.62109H130.594C128.836 4.62109 127.957 5.61719 127.957 7.60938V21.8477C127.957 23.8398 128.836 24.8359 130.594 24.8359H136.043C137.801 24.8359 138.68 23.8398 138.68 21.8477V16.3281H132.562V16.1523L133.986 13.1289H142.195V21.8477C142.195 25.9492 140.145 28 136.043 28H130.594ZM168.738 28C164.637 28 162.586 25.9492 162.586 21.8477V19.9141L165.926 18.332H166.102V21.8477C166.102 23.8398 166.98 24.8359 168.738 24.8359H174.188C175.945 24.8359 176.824 23.8398 176.824 21.8477V18.1562C176.824 16.1641 175.945 15.168 174.188 15.168H169.441C165.926 15.168 164.168 13.4102 164.168 9.89453V6.73047C164.168 3.21484 165.926 1.45703 169.441 1.45703H173.484C177 1.45703 178.758 3.21484 178.758 6.73047V7.66211L175.418 9.24414H175.242V6.73047C175.242 5.32422 174.656 4.62109 173.484 4.62109H169.441C168.27 4.62109 167.684 5.32422 167.684 6.73047V9.89453C167.684 11.3008 168.27 12.0039 169.441 12.0039H174.188C178.289 12.0039 180.34 14.0547 180.34 18.1562V21.8477C180.34 25.9492 178.289 28 174.188 28H168.738ZM186.668 28.7031V2.33594L188.531 1.45703H197.918C202.02 1.45703 204.07 3.50781 204.07 7.60938V12.8828C204.07 16.9844 202.02 19.0352 197.918 19.0352H190.184V27.1211L186.844 28.7031H186.668ZM190.184 4.62109V15.8711H197.918C199.676 15.8711 200.555 14.875 200.555 12.8828V7.60938C200.555 5.61719 199.676 4.62109 197.918 4.62109H190.184ZM209.344 28.7031V7.60938C209.344 3.50781 211.395 1.45703 215.496 1.45703H220.945C225.047 1.45703 227.098 3.50781 227.098 7.60938V27.1211L223.758 28.7031H223.582V16.3281H212.859V27.1211L209.52 28.7031H209.344ZM212.859 13.1289H223.582V7.60938C223.582 5.61719 222.703 4.62109 220.945 4.62109H215.496C213.738 4.62109 212.859 5.61719 212.859 7.60938V13.1289ZM240.281 28C236.18 28 234.129 25.9492 234.129 21.8477V7.60938C234.129 3.50781 236.18 1.45703 240.281 1.45703H245.73C249.832 1.45703 251.883 3.50781 251.883 7.60938V9.54297L248.543 11.125H248.367V7.60938C248.367 5.61719 247.488 4.62109 245.73 4.62109H240.281C238.523 4.62109 237.645 5.61719 237.645 7.60938V21.8477C237.645 23.8398 238.523 24.8359 240.281 24.8359H245.73C247.488 24.8359 248.367 23.8398 248.367 21.8477V19.9141L251.707 18.332H251.883V21.8477C251.883 25.9492 249.832 28 245.73 28H240.281ZM258.914 28V2.33594L260.777 1.45703H271.922V1.63281L270.498 4.65625H262.43V13.1289H271.922V13.3047L270.498 16.3281H262.43V24.8008H274.857V24.9766L273.434 28H258.914Z" fill="black"/>
<path d="M18.2695 9.54297L18.6976 10.4467L19.2695 10.1758V9.54297H18.2695ZM14.9297 11.125V12.125H15.1546L15.3578 12.0287L14.9297 11.125ZM14.7539 11.125H13.7539V12.125H14.7539V11.125ZM14.7539 16.3281H15.7539V15.3281H14.7539V16.3281ZM8.63672 16.3281H7.63672V17.3281H8.63672V16.3281ZM8.63672 16.1523L7.73202 15.7263L7.63672 15.9287V16.1523H8.63672ZM10.0605 13.1289V12.1289H9.42614L9.15585 12.7029L10.0605 13.1289ZM18.2695 13.1289H19.2695V12.1289H18.2695V13.1289ZM6.66797 27C4.77133 27 3.53253 26.5265 2.76082 25.7548C1.98911 24.9831 1.51562 23.7443 1.51562 21.8477H-0.484375C-0.484375 24.0526 0.0675338 25.89 1.3466 27.169C2.62567 28.4481 4.46304 29 6.66797 29V27ZM1.51562 21.8477V7.60938H-0.484375V21.8477H1.51562ZM1.51562 7.60938C1.51562 5.71274 1.98911 4.47393 2.76082 3.70222C3.53253 2.93051 4.77133 2.45703 6.66797 2.45703V0.457031C4.46304 0.457031 2.62567 1.00894 1.3466 2.28801C0.0675338 3.56708 -0.484375 5.40445 -0.484375 7.60938H1.51562ZM6.66797 2.45703H12.1172V0.457031H6.66797V2.45703ZM12.1172 2.45703C14.0138 2.45703 15.2526 2.93051 16.0243 3.70222C16.796 4.47393 17.2695 5.71274 17.2695 7.60938H19.2695C19.2695 5.40445 18.7176 3.56708 17.4386 2.28801C16.1595 1.00894 14.3221 0.457031 12.1172 0.457031V2.45703ZM17.2695 7.60938V9.54297H19.2695V7.60938H17.2695ZM17.8414 8.63923L14.5016 10.2213L15.3578 12.0287L18.6976 10.4467L17.8414 8.63923ZM14.9297 10.125H14.7539V12.125H14.9297V10.125ZM15.7539 11.125V7.60938H13.7539V11.125H15.7539ZM15.7539 7.60938C15.7539 6.48778 15.5092 5.45981 14.8446 4.70654C14.1588 3.9294 13.185 3.62109 12.1172 3.62109V5.62109C12.8072 5.62109 13.1517 5.81084 13.3449 6.02979C13.5592 6.27262 13.7539 6.73878 13.7539 7.60938H15.7539ZM12.1172 3.62109H6.66797V5.62109H12.1172V3.62109ZM6.66797 3.62109C5.60018 3.62109 4.62631 3.9294 3.94059 4.70654C3.27595 5.45981 3.03125 6.48778 3.03125 7.60938H5.03125C5.03125 6.73878 5.22601 6.27262 5.44027 6.02979C5.63346 5.81084 5.97794 5.62109 6.66797 5.62109V3.62109ZM3.03125 7.60938V21.8477H5.03125V7.60938H3.03125ZM3.03125 21.8477C3.03125 22.9692 3.27595 23.9972 3.94059 24.7505C4.62631 25.5276 5.60018 25.8359 6.66797 25.8359V23.8359C5.97794 23.8359 5.63346 23.6462 5.44027 23.4272C5.22601 23.1844 5.03125 22.7183 5.03125 21.8477H3.03125ZM6.66797 25.8359H12.1172V23.8359H6.66797V25.8359ZM12.1172 25.8359C13.185 25.8359 14.1588 25.5276 14.8446 24.7505C15.5092 23.9972 15.7539 22.9692 15.7539 21.8477H13.7539C13.7539 22.7183 13.5592 23.1844 13.3449 23.4272C13.1517 23.6462 12.8072 23.8359 12.1172 23.8359V25.8359ZM15.7539 21.8477V16.3281H13.7539V21.8477H15.7539ZM14.7539 15.3281H8.63672V17.3281H14.7539V15.3281ZM9.63672 16.3281V16.1523H7.63672V16.3281H9.63672ZM9.54142 16.5784L10.9652 13.555L9.15585 12.7029L7.73202 15.7263L9.54142 16.5784ZM10.0605 14.1289H18.2695V12.1289H10.0605V14.1289ZM17.2695 13.1289V21.8477H19.2695V13.1289H17.2695ZM17.2695 21.8477C17.2695 23.7443 16.796 24.9831 16.0243 25.7548C15.2526 26.5265 14.0138 27 12.1172 27V29C14.3221 29 16.1595 28.4481 17.4386 27.169C18.7176 25.89 19.2695 24.0526 19.2695 21.8477H17.2695ZM12.1172 27H6.66797V29H12.1172V27ZM25.3008 28.7031H24.3008V29.7031H25.3008V28.7031ZM43.0547 27.1211L43.4828 28.0248L44.0547 27.7539V27.1211H43.0547ZM39.7148 28.7031V29.7031H39.9397L40.1429 29.6069L39.7148 28.7031ZM39.5391 28.7031H38.5391V29.7031H39.5391V28.7031ZM39.5391 16.3281H40.5391V15.3281H39.5391V16.3281ZM28.8164 16.3281V15.3281H27.8164V16.3281H28.8164ZM28.8164 27.1211L29.2445 28.0248L29.8164 27.7539V27.1211H28.8164ZM25.4766 28.7031V29.7031H25.7014L25.9046 29.6069L25.4766 28.7031ZM28.8164 13.1289H27.8164V14.1289H28.8164V13.1289ZM39.5391 13.1289V14.1289H40.5391V13.1289H39.5391ZM26.3008 28.7031V7.60938H24.3008V28.7031H26.3008ZM26.3008 7.60938C26.3008 5.71274 26.7743 4.47393 27.546 3.70222C28.3177 2.93051 29.5565 2.45703 31.4531 2.45703V0.457031C29.2482 0.457031 27.4108 1.00894 26.1318 2.28801C24.8527 3.56708 24.3008 5.40445 24.3008 7.60938H26.3008ZM31.4531 2.45703H36.9023V0.457031H31.4531V2.45703ZM36.9023 2.45703C38.799 2.45703 40.0378 2.93051 40.8095 3.70222C41.5812 4.47393 42.0547 5.71274 42.0547 7.60938H44.0547C44.0547 5.40445 43.5028 3.56708 42.2237 2.28801C40.9446 1.00894 39.1073 0.457031 36.9023 0.457031V2.45703ZM42.0547 7.60938V27.1211H44.0547V7.60938H42.0547ZM42.6266 26.2174L39.2868 27.7994L40.1429 29.6069L43.4828 28.0248L42.6266 26.2174ZM39.7148 27.7031H39.5391V29.7031H39.7148V27.7031ZM40.5391 28.7031V16.3281H38.5391V28.7031H40.5391ZM39.5391 15.3281H28.8164V17.3281H39.5391V15.3281ZM27.8164 16.3281V27.1211H29.8164V16.3281H27.8164ZM28.3883 26.2174L25.0485 27.7994L25.9046 29.6069L29.2445 28.0248L28.3883 26.2174ZM25.4766 27.7031H25.3008V29.7031H25.4766V27.7031ZM28.8164 14.1289H39.5391V12.1289H28.8164V14.1289ZM40.5391 13.1289V7.60938H38.5391V13.1289H40.5391ZM40.5391 7.60938C40.5391 6.48778 40.2944 5.45981 39.6297 4.70654C38.944 3.9294 37.9701 3.62109 36.9023 3.62109V5.62109C37.5924 5.62109 37.9369 5.81084 38.13 6.02979C38.3443 6.27262 38.5391 6.73878 38.5391 7.60938H40.5391ZM36.9023 3.62109H31.4531V5.62109H36.9023V3.62109ZM31.4531 3.62109C30.3853 3.62109 29.4115 3.9294 28.7257 4.70654C28.0611 5.45981 27.8164 6.48778 27.8164 7.60938H29.8164C29.8164 6.73878 30.0112 6.27262 30.2254 6.02979C30.4186 5.81084 30.7631 5.62109 31.4531 5.62109V3.62109ZM27.8164 7.60938V13.1289H29.8164V7.60938H27.8164ZM50.0859 28.7031H49.0859V29.7031H50.0859V28.7031ZM66.082 3.14453L65.274 3.7337L66.0294 4.7697L66.8503 3.78472L66.082 3.14453ZM82.0781 27.1211L82.5062 28.0248L83.0781 27.7539V27.1211H82.0781ZM78.7383 28.7031V29.7031H78.9631L79.1664 29.6069L78.7383 28.7031ZM78.5625 28.7031H77.5625V29.7031H78.5625V28.7031ZM67.8398 27.1211L68.2679 28.0248L68.8398 27.7539V27.1211H67.8398ZM64.5 28.7031V29.7031H64.7249L64.9281 29.6069L64.5 28.7031ZM64.3242 28.7031H63.3242V29.7031H64.3242V28.7031ZM53.6016 27.1211L54.0296 28.0248L54.6016 27.7539V27.1211H53.6016ZM50.2617 28.7031V29.7031H50.4866L50.6898 29.6069L50.2617 28.7031ZM51.0859 28.7031V7.60938H49.0859V28.7031H51.0859ZM51.0859 7.60938C51.0859 5.71274 51.5594 4.47393 52.3311 3.70222C53.1028 2.93051 54.3416 2.45703 56.2383 2.45703V0.457031C54.0334 0.457031 52.196 1.00894 50.9169 2.28801C49.6378 3.56708 49.0859 5.40445 49.0859 7.60938H51.0859ZM56.2383 2.45703H61.6875V0.457031H56.2383V2.45703ZM61.6875 2.45703C63.6481 2.45703 64.7239 2.97924 65.274 3.7337L66.89 2.55536C65.7995 1.05982 63.9457 0.457031 61.6875 0.457031V2.45703ZM66.8503 3.78472C67.5357 2.96224 68.6681 2.45703 70.4766 2.45703V0.457031C68.3006 0.457031 66.5034 1.07682 65.3138 2.50435L66.8503 3.78472ZM70.4766 2.45703H75.9258V0.457031H70.4766V2.45703ZM75.9258 2.45703C77.8224 2.45703 79.0612 2.93051 79.8329 3.70222C80.6046 4.47393 81.0781 5.71274 81.0781 7.60938H83.0781C83.0781 5.40445 82.5262 3.56708 81.2471 2.28801C79.9681 1.00894 78.1307 0.457031 75.9258 0.457031V2.45703ZM81.0781 7.60938V27.1211H83.0781V7.60938H81.0781ZM81.65 26.2174L78.3102 27.7994L79.1664 29.6069L82.5062 28.0248L81.65 26.2174ZM78.7383 27.7031H78.5625V29.7031H78.7383V27.7031ZM79.5625 28.7031V7.60938H77.5625V28.7031H79.5625ZM79.5625 7.60938C79.5625 6.48778 79.3178 5.45981 78.6532 4.70654C77.9674 3.9294 76.9936 3.62109 75.9258 3.62109V5.62109C76.6158 5.62109 76.9603 5.81084 77.1535 6.02979C77.3677 6.27262 77.5625 6.73878 77.5625 7.60938H79.5625ZM75.9258 3.62109H70.4766V5.62109H75.9258V3.62109ZM70.4766 3.62109C69.4088 3.62109 68.4349 3.9294 67.7492 4.70654C67.0845 5.45981 66.8398 6.48778 66.8398 7.60938H68.8398C68.8398 6.73878 69.0346 6.27262 69.2489 6.02979C69.4421 5.81084 69.7865 5.62109 70.4766 5.62109V3.62109ZM66.8398 7.60938V27.1211H68.8398V7.60938H66.8398ZM67.4118 26.2174L64.0719 27.7994L64.9281 29.6069L68.2679 28.0248L67.4118 26.2174ZM64.5 27.7031H64.3242V29.7031H64.5V27.7031ZM65.3242 28.7031V7.60938H63.3242V28.7031H65.3242ZM65.3242 7.60938C65.3242 6.48778 65.0795 5.45981 64.4149 4.70654C63.7292 3.9294 62.7553 3.62109 61.6875 3.62109V5.62109C62.3775 5.62109 62.722 5.81084 62.9152 6.02979C63.1295 6.27262 63.3242 6.73878 63.3242 7.60938H65.3242ZM61.6875 3.62109H56.2383V5.62109H61.6875V3.62109ZM56.2383 3.62109C55.1705 3.62109 54.1966 3.9294 53.5109 4.70654C52.8463 5.45981 52.6016 6.48778 52.6016 7.60938H54.6016C54.6016 6.73878 54.7963 6.27262 55.0106 6.02979C55.2038 5.81084 55.5483 5.62109 56.2383 5.62109V3.62109ZM52.6016 7.60938V27.1211H54.6016V7.60938H52.6016ZM53.1735 26.2174L49.8336 27.7994L50.6898 29.6069L54.0296 28.0248L53.1735 26.2174ZM50.2617 27.7031H50.0859V29.7031H50.2617V27.7031ZM89.1094 28.7031H88.1094V29.7031H89.1094V28.7031ZM89.1094 2.33594L88.6813 1.4322L88.1094 1.70311V2.33594H89.1094ZM92.4492 0.753906V-0.246094H92.2244L92.0211 -0.149832L92.4492 0.753906ZM92.625 0.753906H93.625V-0.246094H92.625V0.753906ZM92.625 27.1211L93.0531 28.0248L93.625 27.7539V27.1211H92.625ZM89.2852 28.7031V29.7031H89.51L89.7132 29.6069L89.2852 28.7031ZM90.1094 28.7031V2.33594H88.1094V28.7031H90.1094ZM89.5375 3.23968L92.8773 1.65764L92.0211 -0.149832L88.6813 1.4322L89.5375 3.23968ZM92.4492 1.75391H92.625V-0.246094H92.4492V1.75391ZM91.625 0.753906V27.1211H93.625V0.753906H91.625ZM92.1969 26.2174L88.8571 27.7994L89.7132 29.6069L93.0531 28.0248L92.1969 26.2174ZM89.2852 27.7031H89.1094V29.7031H89.2852V27.7031ZM99.6562 28.7031H98.6562V29.7031H99.6562V28.7031ZM117.41 27.1211L117.838 28.0248L118.41 27.7539V27.1211H117.41ZM114.07 28.7031V29.7031H114.295L114.498 29.6069L114.07 28.7031ZM113.895 28.7031H112.895V29.7031H113.895V28.7031ZM103.172 27.1211L103.6 28.0248L104.172 27.7539V27.1211H103.172ZM99.832 28.7031V29.7031H100.057L100.26 29.6069L99.832 28.7031ZM100.656 28.7031V7.60938H98.6562V28.7031H100.656ZM100.656 7.60938C100.656 5.71274 101.13 4.47393 101.901 3.70222C102.673 2.93051 103.912 2.45703 105.809 2.45703V0.457031C103.604 0.457031 101.766 1.00894 100.487 2.28801C99.2082 3.56708 98.6562 5.40445 98.6562 7.60938H100.656ZM105.809 2.45703H111.258V0.457031H105.809V2.45703ZM111.258 2.45703C113.154 2.45703 114.393 2.93051 115.165 3.70222C115.937 4.47393 116.41 5.71274 116.41 7.60938H118.41C118.41 5.40445 117.858 3.56708 116.579 2.28801C115.3 1.00894 113.463 0.457031 111.258 0.457031V2.45703ZM116.41 7.60938V27.1211H118.41V7.60938H116.41ZM116.982 26.2174L113.642 27.7994L114.498 29.6069L117.838 28.0248L116.982 26.2174ZM114.07 27.7031H113.895V29.7031H114.07V27.7031ZM114.895 28.7031V7.60938H112.895V28.7031H114.895ZM114.895 7.60938C114.895 6.48778 114.65 5.45981 113.985 4.70654C113.299 3.9294 112.326 3.62109 111.258 3.62109V5.62109C111.948 5.62109 112.292 5.81084 112.486 6.02979C112.7 6.27262 112.895 6.73878 112.895 7.60938H114.895ZM111.258 3.62109H105.809V5.62109H111.258V3.62109ZM105.809 3.62109C104.741 3.62109 103.767 3.9294 103.081 4.70654C102.417 5.45981 102.172 6.48778 102.172 7.60938H104.172C104.172 6.73878 104.367 6.27262 104.581 6.02979C104.774 5.81084 105.119 5.62109 105.809 5.62109V3.62109ZM102.172 7.60938V27.1211H104.172V7.60938H102.172ZM102.744 26.2174L99.4039 27.7994L100.26 29.6069L103.6 28.0248L102.744 26.2174ZM99.832 27.7031H99.6562V29.7031H99.832V27.7031ZM142.195 9.54297L142.623 10.4467L143.195 10.1758V9.54297H142.195ZM138.855 11.125V12.125H139.08L139.284 12.0287L138.855 11.125ZM138.68 11.125H137.68V12.125H138.68V11.125ZM138.68 16.3281H139.68V15.3281H138.68V16.3281ZM132.562 16.3281H131.562V17.3281H132.562V16.3281ZM132.562 16.1523L131.658 15.7263L131.562 15.9287V16.1523H132.562ZM133.986 13.1289V12.1289H133.352L133.082 12.7029L133.986 13.1289ZM142.195 13.1289H143.195V12.1289H142.195V13.1289ZM130.594 27C128.697 27 127.458 26.5265 126.687 25.7548C125.915 24.9831 125.441 23.7443 125.441 21.8477H123.441C123.441 24.0526 123.993 25.89 125.272 27.169C126.551 28.4481 128.389 29 130.594 29V27ZM125.441 21.8477V7.60938H123.441V21.8477H125.441ZM125.441 7.60938C125.441 5.71274 125.915 4.47393 126.687 3.70222C127.458 2.93051 128.697 2.45703 130.594 2.45703V0.457031C128.389 0.457031 126.551 1.00894 125.272 2.28801C123.993 3.56708 123.441 5.40445 123.441 7.60938H125.441ZM130.594 2.45703H136.043V0.457031H130.594V2.45703ZM136.043 2.45703C137.94 2.45703 139.178 2.93051 139.95 3.70222C140.722 4.47393 141.195 5.71274 141.195 7.60938H143.195C143.195 5.40445 142.643 3.56708 141.364 2.28801C140.085 1.00894 138.248 0.457031 136.043 0.457031V2.45703ZM141.195 7.60938V9.54297H143.195V7.60938H141.195ZM141.767 8.63923L138.427 10.2213L139.284 12.0287L142.623 10.4467L141.767 8.63923ZM138.855 10.125H138.68V12.125H138.855V10.125ZM139.68 11.125V7.60938H137.68V11.125H139.68ZM139.68 7.60938C139.68 6.48778 139.435 5.45981 138.77 4.70654C138.085 3.9294 137.111 3.62109 136.043 3.62109V5.62109C136.733 5.62109 137.077 5.81084 137.271 6.02979C137.485 6.27262 137.68 6.73878 137.68 7.60938H139.68ZM136.043 3.62109H130.594V5.62109H136.043V3.62109ZM130.594 3.62109C129.526 3.62109 128.552 3.9294 127.866 4.70654C127.202 5.45981 126.957 6.48778 126.957 7.60938H128.957C128.957 6.73878 129.152 6.27262 129.366 6.02979C129.559 5.81084 129.904 5.62109 130.594 5.62109V3.62109ZM126.957 7.60938V21.8477H128.957V7.60938H126.957ZM126.957 21.8477C126.957 22.9692 127.202 23.9972 127.866 24.7505C128.552 25.5276 129.526 25.8359 130.594 25.8359V23.8359C129.904 23.8359 129.559 23.6462 129.366 23.4272C129.152 23.1844 128.957 22.7183 128.957 21.8477H126.957ZM130.594 25.8359H136.043V23.8359H130.594V25.8359ZM136.043 25.8359C137.111 25.8359 138.085 25.5276 138.77 24.7505C139.435 23.9972 139.68 22.9692 139.68 21.8477H137.68C137.68 22.7183 137.485 23.1844 137.271 23.4272C137.077 23.6462 136.733 23.8359 136.043 23.8359V25.8359ZM139.68 21.8477V16.3281H137.68V21.8477H139.68ZM138.68 15.3281H132.562V17.3281H138.68V15.3281ZM133.562 16.3281V16.1523H131.562V16.3281H133.562ZM133.467 16.5784L134.891 13.555L133.082 12.7029L131.658 15.7263L133.467 16.5784ZM133.986 14.1289H142.195V12.1289H133.986V14.1289ZM141.195 13.1289V21.8477H143.195V13.1289H141.195ZM141.195 21.8477C141.195 23.7443 140.722 24.9831 139.95 25.7548C139.178 26.5265 137.94 27 136.043 27V29C138.248 29 140.085 28.4481 141.364 27.169C142.643 25.89 143.195 24.0526 143.195 21.8477H141.195ZM136.043 27H130.594V29H136.043V27ZM162.586 19.9141L162.158 19.0103L161.586 19.2812V19.9141H162.586ZM165.926 18.332V17.332H165.701L165.498 17.4283L165.926 18.332ZM166.102 18.332H167.102V17.332H166.102V18.332ZM178.758 7.66211L179.186 8.56585L179.758 8.29494V7.66211H178.758ZM175.418 9.24414V10.2441H175.643L175.846 10.1479L175.418 9.24414ZM175.242 9.24414H174.242V10.2441H175.242V9.24414ZM168.738 27C166.842 27 165.603 26.5265 164.831 25.7548C164.059 24.9831 163.586 23.7443 163.586 21.8477H161.586C161.586 24.0526 162.138 25.89 163.417 27.169C164.696 28.4481 166.533 29 168.738 29V27ZM163.586 21.8477V19.9141H161.586V21.8477H163.586ZM163.014 20.8178L166.354 19.2358L165.498 17.4283L162.158 19.0103L163.014 20.8178ZM165.926 19.332H166.102V17.332H165.926V19.332ZM165.102 18.332V21.8477H167.102V18.332H165.102ZM165.102 21.8477C165.102 22.9692 165.346 23.9972 166.011 24.7505C166.697 25.5276 167.67 25.8359 168.738 25.8359V23.8359C168.048 23.8359 167.704 23.6462 167.511 23.4272C167.296 23.1844 167.102 22.7183 167.102 21.8477H165.102ZM168.738 25.8359H174.188V23.8359H168.738V25.8359ZM174.188 25.8359C175.255 25.8359 176.229 25.5276 176.915 24.7505C177.58 23.9972 177.824 22.9692 177.824 21.8477H175.824C175.824 22.7183 175.629 23.1844 175.415 23.4272C175.222 23.6462 174.878 23.8359 174.188 23.8359V25.8359ZM177.824 21.8477V18.1562H175.824V21.8477H177.824ZM177.824 18.1562C177.824 17.0347 177.58 16.0067 176.915 15.2534C176.229 14.4763 175.255 14.168 174.188 14.168V16.168C174.878 16.168 175.222 16.3577 175.415 16.5767C175.629 16.8195 175.824 17.2857 175.824 18.1562H177.824ZM174.188 14.168H169.441V16.168H174.188V14.168ZM169.441 14.168C167.838 14.168 166.819 13.7677 166.193 13.1425C165.568 12.5173 165.168 11.4982 165.168 9.89453H163.168C163.168 11.8065 163.647 13.4241 164.779 14.5567C165.912 15.6893 167.529 16.168 169.441 16.168V14.168ZM165.168 9.89453V6.73047H163.168V9.89453H165.168ZM165.168 6.73047C165.168 5.1268 165.568 4.10772 166.193 3.4825C166.819 2.85727 167.838 2.45703 169.441 2.45703V0.457031C167.529 0.457031 165.912 0.935698 164.779 2.06828C163.647 3.20087 163.168 4.81851 163.168 6.73047H165.168ZM169.441 2.45703H173.484V0.457031H169.441V2.45703ZM173.484 2.45703C175.088 2.45703 176.107 2.85727 176.732 3.4825C177.358 4.10772 177.758 5.1268 177.758 6.73047H179.758C179.758 4.81851 179.279 3.20087 178.147 2.06828C177.014 0.935698 175.396 0.457031 173.484 0.457031V2.45703ZM177.758 6.73047V7.66211H179.758V6.73047H177.758ZM178.33 6.75837L174.99 8.3404L175.846 10.1479L179.186 8.56585L178.33 6.75837ZM175.418 8.24414H175.242V10.2441H175.418V8.24414ZM176.242 9.24414V6.73047H174.242V9.24414H176.242ZM176.242 6.73047C176.242 5.9131 176.076 5.11392 175.571 4.50825C175.037 3.86767 174.277 3.62109 173.484 3.62109V5.62109C173.863 5.62109 173.982 5.72608 174.035 5.78862C174.116 5.88608 174.242 6.14158 174.242 6.73047H176.242ZM173.484 3.62109H169.441V5.62109H173.484V3.62109ZM169.441 3.62109C168.649 3.62109 167.889 3.86767 167.355 4.50825C166.85 5.11392 166.684 5.9131 166.684 6.73047H168.684C168.684 6.14158 168.81 5.88608 168.891 5.78862C168.943 5.72608 169.062 5.62109 169.441 5.62109V3.62109ZM166.684 6.73047V9.89453H168.684V6.73047H166.684ZM166.684 9.89453C166.684 10.7119 166.85 11.5111 167.355 12.1167C167.889 12.7573 168.649 13.0039 169.441 13.0039V11.0039C169.062 11.0039 168.943 10.8989 168.891 10.8364C168.81 10.7389 168.684 10.4834 168.684 9.89453H166.684ZM169.441 13.0039H174.188V11.0039H169.441V13.0039ZM174.188 13.0039C176.084 13.0039 177.323 13.4774 178.095 14.2491C178.866 15.0208 179.34 16.2596 179.34 18.1562H181.34C181.34 15.9513 180.788 14.114 179.509 12.8349C178.23 11.5558 176.392 11.0039 174.188 11.0039V13.0039ZM179.34 18.1562V21.8477H181.34V18.1562H179.34ZM179.34 21.8477C179.34 23.7443 178.866 24.9831 178.095 25.7548C177.323 26.5265 176.084 27 174.188 27V29C176.392 29 178.23 28.4481 179.509 27.169C180.788 25.89 181.34 24.0526 181.34 21.8477H179.34ZM174.188 27H168.738V29H174.188V27ZM186.668 28.7031H185.668V29.7031H186.668V28.7031ZM186.668 2.33594L186.241 1.43151L185.668 1.70197V2.33594H186.668ZM188.531 1.45703V0.457031H188.307L188.105 0.5526L188.531 1.45703ZM190.184 19.0352V18.0352H189.184V19.0352H190.184ZM190.184 27.1211L190.612 28.0248L191.184 27.7539V27.1211H190.184ZM186.844 28.7031V29.7031H187.069L187.272 29.6069L186.844 28.7031ZM190.184 4.62109V3.62109H189.184V4.62109H190.184ZM190.184 15.8711H189.184V16.8711H190.184V15.8711ZM187.668 28.7031V2.33594H185.668V28.7031H187.668ZM187.095 3.24037L188.958 2.36146L188.105 0.5526L186.241 1.43151L187.095 3.24037ZM188.531 2.45703H197.918V0.457031H188.531V2.45703ZM197.918 2.45703C199.815 2.45703 201.053 2.93051 201.825 3.70222C202.597 4.47393 203.07 5.71274 203.07 7.60938H205.07C205.07 5.40445 204.518 3.56708 203.239 2.28801C201.96 1.00894 200.123 0.457031 197.918 0.457031V2.45703ZM203.07 7.60938V12.8828H205.07V7.60938H203.07ZM203.07 12.8828C203.07 14.7794 202.597 16.0183 201.825 16.79C201.053 17.5617 199.815 18.0352 197.918 18.0352V20.0352C200.123 20.0352 201.96 19.4832 203.239 18.2042C204.518 16.9251 205.07 15.0877 205.07 12.8828H203.07ZM197.918 18.0352H190.184V20.0352H197.918V18.0352ZM189.184 19.0352V27.1211H191.184V19.0352H189.184ZM189.756 26.2174L186.416 27.7994L187.272 29.6069L190.612 28.0248L189.756 26.2174ZM186.844 27.7031H186.668V29.7031H186.844V27.7031ZM189.184 4.62109V15.8711H191.184V4.62109H189.184ZM190.184 16.8711H197.918V14.8711H190.184V16.8711ZM197.918 16.8711C198.986 16.8711 199.96 16.5628 200.645 15.7856C201.31 15.0324 201.555 14.0044 201.555 12.8828H199.555C199.555 13.7534 199.36 14.2196 199.146 14.4624C198.952 14.6814 198.608 14.8711 197.918 14.8711V16.8711ZM201.555 12.8828V7.60938H199.555V12.8828H201.555ZM201.555 7.60938C201.555 6.48778 201.31 5.45981 200.645 4.70654C199.96 3.9294 198.986 3.62109 197.918 3.62109V5.62109C198.608 5.62109 198.952 5.81084 199.146 6.02979C199.36 6.27262 199.555 6.73878 199.555 7.60938H201.555ZM197.918 3.62109H190.184V5.62109H197.918V3.62109ZM209.344 28.7031H208.344V29.7031H209.344V28.7031ZM227.098 27.1211L227.526 28.0248L228.098 27.7539V27.1211H227.098ZM223.758 28.7031V29.7031H223.983L224.186 29.6069L223.758 28.7031ZM223.582 28.7031H222.582V29.7031H223.582V28.7031ZM223.582 16.3281H224.582V15.3281H223.582V16.3281ZM212.859 16.3281V15.3281H211.859V16.3281H212.859ZM212.859 27.1211L213.287 28.0248L213.859 27.7539V27.1211H212.859ZM209.52 28.7031V29.7031H209.744L209.948 29.6069L209.52 28.7031ZM212.859 13.1289H211.859V14.1289H212.859V13.1289ZM223.582 13.1289V14.1289H224.582V13.1289H223.582ZM210.344 28.7031V7.60938H208.344V28.7031H210.344ZM210.344 7.60938C210.344 5.71274 210.817 4.47393 211.589 3.70222C212.361 2.93051 213.599 2.45703 215.496 2.45703V0.457031C213.291 0.457031 211.454 1.00894 210.175 2.28801C208.896 3.56708 208.344 5.40445 208.344 7.60938H210.344ZM215.496 2.45703H220.945V0.457031H215.496V2.45703ZM220.945 2.45703C222.842 2.45703 224.081 2.93051 224.852 3.70222C225.624 4.47393 226.098 5.71274 226.098 7.60938H228.098C228.098 5.40445 227.546 3.56708 226.267 2.28801C224.988 1.00894 223.15 0.457031 220.945 0.457031V2.45703ZM226.098 7.60938V27.1211H228.098V7.60938H226.098ZM226.67 26.2174L223.33 27.7994L224.186 29.6069L227.526 28.0248L226.67 26.2174ZM223.758 27.7031H223.582V29.7031H223.758V27.7031ZM224.582 28.7031V16.3281H222.582V28.7031H224.582ZM223.582 15.3281H212.859V17.3281H223.582V15.3281ZM211.859 16.3281V27.1211H213.859V16.3281H211.859ZM212.431 26.2174L209.091 27.7994L209.948 29.6069L213.287 28.0248L212.431 26.2174ZM209.52 27.7031H209.344V29.7031H209.52V27.7031ZM212.859 14.1289H223.582V12.1289H212.859V14.1289ZM224.582 13.1289V7.60938H222.582V13.1289H224.582ZM224.582 7.60938C224.582 6.48778 224.337 5.45981 223.673 4.70654C222.987 3.9294 222.013 3.62109 220.945 3.62109V5.62109C221.635 5.62109 221.98 5.81084 222.173 6.02979C222.387 6.27262 222.582 6.73878 222.582 7.60938H224.582ZM220.945 3.62109H215.496V5.62109H220.945V3.62109ZM215.496 3.62109C214.428 3.62109 213.454 3.9294 212.769 4.70654C212.104 5.45981 211.859 6.48778 211.859 7.60938H213.859C213.859 6.73878 214.054 6.27262 214.268 6.02979C214.462 5.81084 214.806 5.62109 215.496 5.62109V3.62109ZM211.859 7.60938V13.1289H213.859V7.60938H211.859ZM251.883 9.54297L252.311 10.4467L252.883 10.1758V9.54297H251.883ZM248.543 11.125V12.125H248.768L248.971 12.0287L248.543 11.125ZM248.367 11.125H247.367V12.125H248.367V11.125ZM248.367 19.9141L247.939 19.0103L247.367 19.2812V19.9141H248.367ZM251.707 18.332V17.332H251.482L251.279 17.4283L251.707 18.332ZM251.883 18.332H252.883V17.332H251.883V18.332ZM240.281 27C238.385 27 237.146 26.5265 236.374 25.7548C235.602 24.9831 235.129 23.7443 235.129 21.8477H233.129C233.129 24.0526 233.681 25.89 234.96 27.169C236.239 28.4481 238.076 29 240.281 29V27ZM235.129 21.8477V7.60938H233.129V21.8477H235.129ZM235.129 7.60938C235.129 5.71274 235.602 4.47393 236.374 3.70222C237.146 2.93051 238.385 2.45703 240.281 2.45703V0.457031C238.076 0.457031 236.239 1.00894 234.96 2.28801C233.681 3.56708 233.129 5.40445 233.129 7.60938H235.129ZM240.281 2.45703H245.73V0.457031H240.281V2.45703ZM245.73 2.45703C247.627 2.45703 248.866 2.93051 249.638 3.70222C250.409 4.47393 250.883 5.71274 250.883 7.60938H252.883C252.883 5.40445 252.331 3.56708 251.052 2.28801C249.773 1.00894 247.935 0.457031 245.73 0.457031V2.45703ZM250.883 7.60938V9.54297H252.883V7.60938H250.883ZM251.455 8.63923L248.115 10.2213L248.971 12.0287L252.311 10.4467L251.455 8.63923ZM248.543 10.125H248.367V12.125H248.543V10.125ZM249.367 11.125V7.60938H247.367V11.125H249.367ZM249.367 7.60938C249.367 6.48778 249.122 5.45981 248.458 4.70654C247.772 3.9294 246.798 3.62109 245.73 3.62109V5.62109C246.42 5.62109 246.765 5.81084 246.958 6.02979C247.172 6.27262 247.367 6.73878 247.367 7.60938H249.367ZM245.73 3.62109H240.281V5.62109H245.73V3.62109ZM240.281 3.62109C239.213 3.62109 238.24 3.9294 237.554 4.70654C236.889 5.45981 236.645 6.48778 236.645 7.60938H238.645C238.645 6.73878 238.839 6.27262 239.054 6.02979C239.247 5.81084 239.591 5.62109 240.281 5.62109V3.62109ZM236.645 7.60938V21.8477H238.645V7.60938H236.645ZM236.645 21.8477C236.645 22.9692 236.889 23.9972 237.554 24.7505C238.24 25.5276 239.213 25.8359 240.281 25.8359V23.8359C239.591 23.8359 239.247 23.6462 239.054 23.4272C238.839 23.1844 238.645 22.7183 238.645 21.8477H236.645ZM240.281 25.8359H245.73V23.8359H240.281V25.8359ZM245.73 25.8359C246.798 25.8359 247.772 25.5276 248.458 24.7505C249.122 23.9972 249.367 22.9692 249.367 21.8477H247.367C247.367 22.7183 247.172 23.1844 246.958 23.4272C246.765 23.6462 246.42 23.8359 245.73 23.8359V25.8359ZM249.367 21.8477V19.9141H247.367V21.8477H249.367ZM248.795 20.8178L252.135 19.2358L251.279 17.4283L247.939 19.0103L248.795 20.8178ZM251.707 19.332H251.883V17.332H251.707V19.332ZM250.883 18.332V21.8477H252.883V18.332H250.883ZM250.883 21.8477C250.883 23.7443 250.409 24.9831 249.638 25.7548C248.866 26.5265 247.627 27 245.73 27V29C247.935 29 249.773 28.4481 251.052 27.169C252.331 25.89 252.883 24.0526 252.883 21.8477H250.883ZM245.73 27H240.281V29H245.73V27ZM258.914 28H257.914V29H258.914V28ZM258.914 2.33594L258.487 1.43151L257.914 1.70197V2.33594H258.914ZM260.777 1.45703V0.457031H260.553L260.351 0.5526L260.777 1.45703ZM271.922 1.45703H272.922V0.457031H271.922V1.45703ZM271.922 1.63281L272.827 2.05886L272.922 1.8565V1.63281H271.922ZM270.498 4.65625V5.65625H271.132L271.403 5.0823L270.498 4.65625ZM262.43 4.65625V3.65625H261.43V4.65625H262.43ZM262.43 13.1289H261.43V14.1289H262.43V13.1289ZM271.922 13.1289H272.922V12.1289H271.922V13.1289ZM271.922 13.3047L272.827 13.7307L272.922 13.5284V13.3047H271.922ZM270.498 16.3281V17.3281H271.132L271.403 16.7542L270.498 16.3281ZM262.43 16.3281V15.3281H261.43V16.3281H262.43ZM262.43 24.8008H261.43V25.8008H262.43V24.8008ZM274.857 24.8008H275.857V23.8008H274.857V24.8008ZM274.857 24.9766L275.762 25.4026L275.857 25.2002V24.9766H274.857ZM273.434 28V29H274.068L274.338 28.4261L273.434 28ZM259.914 28V2.33594H257.914V28H259.914ZM259.341 3.24037L261.204 2.36146L260.351 0.5526L258.487 1.43151L259.341 3.24037ZM260.777 2.45703H271.922V0.457031H260.777V2.45703ZM270.922 1.45703V1.63281H272.922V1.45703H270.922ZM271.017 1.20676L269.593 4.2302L271.403 5.0823L272.827 2.05886L271.017 1.20676ZM270.498 3.65625H262.43V5.65625H270.498V3.65625ZM261.43 4.65625V13.1289H263.43V4.65625H261.43ZM262.43 14.1289H271.922V12.1289H262.43V14.1289ZM270.922 13.1289V13.3047H272.922V13.1289H270.922ZM271.017 12.8786L269.593 15.9021L271.403 16.7542L272.827 13.7307L271.017 12.8786ZM270.498 15.3281H262.43V17.3281H270.498V15.3281ZM261.43 16.3281V24.8008H263.43V16.3281H261.43ZM262.43 25.8008H274.857V23.8008H262.43V25.8008ZM273.857 24.8008V24.9766H275.857V24.8008H273.857ZM273.953 24.5505L272.529 27.5739L274.338 28.4261L275.762 25.4026L273.953 24.5505ZM273.434 27H258.914V29H273.434V27Z" fill="#EC10FF"/>
</svg>
